<svg width="25" height="24" viewBox="0 0 25 24" fill="none" xmlns="http://www.w3.org/2000/svg">
<path d="M6.5 16.9998C6.5 17.3511 6.5 17.5268 6.51567 17.6795C6.64575 18.9473 7.5626 19.9945 8.80206 20.291C8.95134 20.3267 9.1255 20.3499 9.47368 20.3963L16.0656 21.2753C17.942 21.5254 18.8803 21.6505 19.6084 21.361C20.2478 21.1068 20.7803 20.6406 21.1168 20.0405C21.5 19.3569 21.5 18.4104 21.5 16.5174V7.48232C21.5 5.58928 21.5 4.64275 21.1168 3.95923C20.7803 3.35911 20.2478 2.89288 19.6084 2.63868C18.8803 2.34914 17.942 2.47423 16.0656 2.72442L9.47368 3.60335C9.12546 3.64978 8.95135 3.67299 8.80206 3.7087C7.5626 4.0052 6.64575 5.05241 6.51567 6.32018C6.5 6.47288 6.5 6.64854 6.5 6.99984M12.5 7.99984L16.5 11.9998M16.5 11.9998L12.5 15.9998M16.5 11.9998H3.5" stroke="white" stroke-width="2" stroke-linecap="round" stroke-linejoin="round"/>
</svg>
