<svg width="56" height="56" viewBox="0 0 56 56" fill="none" xmlns="http://www.w3.org/2000/svg">
<path d="M28 55C13.0883 55 1 42.9117 1 28C1 13.0883 13.0883 1 28 1C42.9117 1 55 13.0883 55 28C55 42.9117 42.9117 55 28 55Z" fill="#0F6ABA"/>
<path d="M28 55C13.0883 55 1 42.9117 1 28C1 13.0883 13.0883 1 28 1C42.9117 1 55 13.0883 55 28C55 42.9117 42.9117 55 28 55Z" stroke="url(#paint0_linear_12090_258)" stroke-width="2"/>
<path d="M31.5636 27.2258C32.5716 27.3938 33.4476 27.7778 34.1916 28.3778C34.9596 28.9538 35.5476 29.6978 35.9556 30.6098C36.3636 31.4978 36.5676 32.5058 36.5676 33.6338C36.5676 35.1218 36.1956 36.4178 35.4516 37.5218C34.7316 38.6258 33.6996 39.4778 32.3556 40.0778C31.0116 40.7018 29.4276 41.0138 27.6036 41.0138C25.7796 41.0138 24.1716 40.6898 22.7796 40.0418C21.3876 39.4178 20.2716 38.5058 19.4316 37.3058L21.8436 34.5698C22.4196 35.4338 23.1636 36.1178 24.0756 36.6218C24.9876 37.1498 26.1396 37.4138 27.5316 37.4138C29.0916 37.4138 30.3036 37.0778 31.1676 36.4058C32.0316 35.7338 32.4636 34.7258 32.4636 33.3818C32.4636 31.9898 31.9836 30.8978 31.0236 30.1058C30.0876 29.3138 28.6716 28.9178 26.7756 28.9178H25.8036V25.8218H26.8836C28.4916 25.8218 29.7276 25.4498 30.5916 24.7058C31.4556 23.9378 31.8876 22.9778 31.8876 21.8258C31.8876 21.0578 31.7076 20.4338 31.3476 19.9538C31.0116 19.4498 30.5316 19.0778 29.9076 18.8378C29.2836 18.5978 28.5636 18.4778 27.7476 18.4778C26.5236 18.4778 25.4436 18.7418 24.5076 19.2698C23.5716 19.7978 22.8276 20.5538 22.2756 21.5378L19.7916 18.8378C20.2716 18.0698 20.9316 17.3978 21.7716 16.8218C22.6116 16.2458 23.5716 15.8018 24.6516 15.4898C25.7556 15.1538 26.9196 14.9858 28.1436 14.9858C29.7276 14.9858 31.1196 15.2498 32.3196 15.7778C33.5196 16.3058 34.4436 17.0498 35.0916 18.0098C35.7636 18.9698 36.0996 20.0978 36.0996 21.3938C36.0996 22.3298 35.9196 23.2178 35.5596 24.0578C35.1996 24.8738 34.6716 25.5698 33.9756 26.1458C33.2796 26.6978 32.4756 27.0578 31.5636 27.2258Z" fill="white"/>
<defs>
<linearGradient id="paint0_linear_12090_258" x1="28" y1="0" x2="28" y2="56" gradientUnits="userSpaceOnUse">
<stop stop-color="white" stop-opacity="0.12"/>
<stop offset="1" stop-color="white" stop-opacity="0"/>
</linearGradient>
</defs>
</svg>
