<svg width="149" height="45" viewBox="0 0 149 45" fill="none" xmlns="http://www.w3.org/2000/svg">
<path d="M51.1754 11.3319C50.962 11.3319 50.7487 11.4031 50.6064 11.5453C50.4642 11.6876 50.3456 11.9009 50.3456 12.1143V18.9426C50.3456 19.4405 50.393 19.9384 50.4879 20.4362L50.5353 20.6259H50.4167L44.0864 15.0069V19.5353C44.0864 19.8198 44.2286 20.1043 44.5131 20.2466C44.6317 20.3177 44.7739 20.3651 44.9399 20.3651H45.2007V20.4837H40.3403V20.3651H40.6011C40.8145 20.3651 41.0279 20.294 41.1702 20.1517C41.3124 20.0095 41.431 19.7724 41.3835 19.5827V12.6359C41.3835 12.138 41.3361 11.6639 41.2413 11.1897L41.1939 11H41.3124L47.6428 16.6191V12.1618C47.6428 11.9484 47.5242 11.735 47.382 11.5927C47.2397 11.4505 47.0026 11.3793 46.8129 11.3793H46.5996V11.2371H51.4599V11.3319H51.1754Z" fill="white"/>
<path d="M52.2664 20.3177C52.4797 20.3177 52.7168 20.2466 52.8591 20.0569C53.0014 19.9146 53.1199 19.6776 53.1199 19.4642V12.1618C53.1199 11.901 52.9776 11.6401 52.7406 11.4979C52.5983 11.3793 52.456 11.3556 52.2427 11.3556H52.053V11.2134H57.9329C58.2174 11.2134 58.5256 11.166 58.8101 11.1423C59.0235 11.0948 59.2606 11.0711 59.474 11V13.7266H59.3317V13.608C59.4028 13.0153 59.1183 12.3988 58.5493 12.1143C58.2885 11.9721 57.9803 11.9009 57.6721 11.9009H55.7516V15.5759H57.1979C57.5772 15.5759 57.9329 15.4336 58.2648 15.1491C58.5256 14.8883 58.6915 14.4852 58.6915 14.0822V14.0348H58.8338V17.7097H58.6915V17.6386C58.6915 17.2592 58.5493 16.9036 58.2648 16.5717C58.004 16.3109 57.6246 16.1449 57.269 16.1449H55.8464V19.6776H57.4824C58.1225 19.6776 58.7153 19.4642 59.2131 19.0374C59.7348 18.5395 60.0904 17.9468 60.2801 17.2829H60.4223L59.9007 20.3651H52.1241V20.2466L52.2664 20.3177Z" fill="white"/>
<path d="M74.0075 11.3325H73.8889C73.6756 11.3325 73.4385 11.4036 73.2251 11.5221C73.0117 11.6407 72.8457 11.8778 72.7272 12.0912L70.4985 19.2988C70.3563 19.7255 70.3088 20.1049 70.3088 20.5316C70.3088 20.6028 70.3088 20.6739 70.3088 20.745H70.1666L67.0844 14.9837L64.998 19.275C64.7846 19.7255 64.6186 20.2471 64.6186 20.7213H64.5001L61.2282 12.0675C61.1097 11.8541 60.9674 11.617 60.7303 11.4984C60.5407 11.3799 60.3036 11.3088 60.0902 11.3088H59.9954V11.1665H64.7372V11.3088H64.6186C64.3578 11.3088 64.1682 11.451 64.0971 11.6881C64.0971 11.7592 64.0971 11.8067 64.0971 11.8778C64.0971 11.9489 64.1445 12.0675 64.1445 12.1386L65.5907 15.7424L67.8668 10.9531H67.9854L70.6408 15.8372L71.7077 12.0912C71.7077 12.02 71.7551 11.9015 71.7551 11.8304C71.7551 11.7592 71.7551 11.6881 71.7077 11.5696C71.6603 11.4984 71.6366 11.3799 71.518 11.3562C71.4469 11.2851 71.3283 11.2376 71.1624 11.2851H71.0913V11.1428H73.9601L74.0075 11.3325Z" fill="white"/>
<path d="M77.3742 20.3177C77.5876 20.3177 77.8247 20.2466 77.9669 20.0569C78.1092 19.9146 78.2277 19.6776 78.2277 19.4642V12.1618C78.2277 11.901 78.0855 11.6401 77.8484 11.4979C77.7061 11.3793 77.5639 11.3556 77.3505 11.3556H77.2319V11.2134H83.1118C83.3963 11.2134 83.7045 11.166 83.989 11.1423C84.2024 11.0948 84.4395 11.0711 84.6529 11V13.7266H84.5344V13.608C84.6055 13.0153 84.321 12.3988 83.752 12.1143C83.4912 11.9721 83.1829 11.9009 82.8747 11.9009H80.9543V15.5759H82.4005C82.7799 15.5759 83.1355 15.4336 83.4674 15.1491C83.7282 14.8883 83.8942 14.4852 83.8942 14.0822V14.0348H84.0128V17.7097H83.8705V17.6386C83.8705 17.2592 83.7282 16.9036 83.4437 16.5717C83.1829 16.3109 82.8036 16.1449 82.448 16.1449H81.0254V19.6776H82.6613C83.3015 19.6776 83.8942 19.4642 84.3921 19.0374C84.9137 18.5395 85.2693 17.9468 85.459 17.2829H85.6013L85.0797 20.3651H77.3031V20.2466L77.3742 20.3177Z" fill="white"/>
<path d="M96.6732 11.3326C96.4599 11.3326 96.2465 11.4038 96.1042 11.546C95.962 11.6883 95.8434 11.9017 95.8434 12.115V18.9433C95.8434 19.4412 95.8908 19.9391 95.9857 20.437L96.0331 20.6266H95.9146L89.5605 15.0313V19.5834C89.5605 19.8679 89.7028 20.1524 89.9873 20.2947C90.1058 20.3658 90.2481 20.4132 90.414 20.4132H90.6748V20.5318H85.8145V20.4132H86.0752C86.2886 20.4132 86.502 20.3421 86.6443 20.1999C86.7865 20.0576 86.9051 19.8205 86.8577 19.6308V12.6603C86.8577 12.1625 86.8102 11.6883 86.7154 11.2141L86.668 11.0244H86.8102L93.1643 16.6672V12.1862C93.1643 11.9728 93.0932 11.7594 92.9035 11.6171C92.7612 11.4749 92.5241 11.4038 92.3345 11.4038H92.0737V11.2615H96.9341V11.3563H96.6732V11.3326Z" fill="white"/>
<path d="M102.458 20.674C100.894 20.674 99.6133 20.2236 98.6886 19.37C97.7639 18.5165 97.3135 17.3073 97.3135 15.8374C97.3135 14.3674 97.8114 13.1582 98.736 12.3047C99.6607 11.4512 100.965 11.0244 102.624 11.0244C103.359 11.0244 104.118 11.0955 104.829 11.2141C105.422 11.2852 105.991 11.4275 106.56 11.6409L106.394 14.154H106.276C105.825 12.5181 104.829 11.6883 103.264 11.6883C101.249 11.6883 100.182 13.1108 100.182 15.9322C100.182 17.2362 100.396 18.2083 100.822 18.9196C101.202 19.5834 101.96 20.0102 102.743 19.9865C103.193 19.9865 103.596 19.8679 103.976 19.6071C104.331 19.3937 104.545 18.967 104.545 18.5402V16.762C104.545 16.5724 104.474 16.4064 104.355 16.3116C104.213 16.193 103.999 16.1693 103.857 16.1693H103.644V16.027H108.101V16.1693H107.911C107.722 16.1693 107.532 16.2167 107.39 16.3116C107.271 16.4301 107.2 16.5724 107.248 16.762V18.967C106.75 19.6071 105.872 20.105 104.568 20.4132C103.833 20.5555 103.146 20.674 102.458 20.674Z" fill="white"/>
<path d="M108.267 20.3178C108.481 20.3178 108.718 20.2466 108.86 20.057C109.002 19.9147 109.121 19.6776 109.121 19.4642V12.1618C109.121 11.8773 108.979 11.5691 108.694 11.4268C108.552 11.3557 108.433 11.3083 108.267 11.3083H108.078V11.166H112.819V11.3083H112.677C112.464 11.3083 112.227 11.3794 112.084 11.5691C111.942 11.7113 111.824 11.9484 111.824 12.1618V19.8436H113.46C114.1 19.8436 114.692 19.6302 115.19 19.2034C115.712 18.7055 116.068 18.1128 116.257 17.4489H116.4L115.878 20.5311H108.101V20.4126H108.244V20.3178H108.267Z" fill="white"/>
<path d="M126.263 20.3182H126.381V20.4367H121.379V20.3182H121.497C121.639 20.3182 121.853 20.2708 121.948 20.1285C122.019 20.0574 122.09 19.9151 122.09 19.7729C122.09 19.6306 122.042 19.5595 122.019 19.4172L121.497 18.1844H118.652L118.13 19.4172C118.083 19.4884 118.059 19.6069 118.059 19.7018C118.059 19.7729 118.059 19.844 118.107 19.9151C118.154 20.0337 118.225 20.1048 118.296 20.1285C118.415 20.1996 118.51 20.2471 118.652 20.2471H118.771V20.3656H115.831V20.2471H115.949C116.162 20.2471 116.376 20.1759 116.542 20.0574C116.755 19.9388 116.921 19.7729 117.04 19.5358L120.146 12.7787C120.501 12.1385 120.738 11.4984 120.881 10.7871H120.999L125.172 19.5358C125.338 20.0337 125.765 20.3182 126.263 20.3182ZM118.913 17.5916H121.189L120.051 14.9362L118.913 17.5916Z" fill="white"/>
<path d="M137.098 11.3319C136.647 11.3319 136.291 11.6876 136.291 12.1143V18.9426C136.291 19.4405 136.339 19.9384 136.434 20.4362L136.481 20.6259H136.363L130.032 15.0069V19.5353C130.032 19.8198 130.174 20.1043 130.459 20.2466C130.577 20.3177 130.72 20.3651 130.886 20.3651H131.147V20.4837H126.286V20.3651H126.547C126.76 20.3651 126.974 20.294 127.116 20.1517C127.258 20.0095 127.377 19.7724 127.329 19.5827V12.6359C127.329 12.138 127.282 11.6639 127.187 11.1897L127.14 11H127.282L133.612 16.6191V12.1618C133.612 11.9484 133.494 11.735 133.351 11.5927C133.209 11.4505 132.972 11.3793 132.782 11.3793H132.522V11.2371H137.382V11.3319H137.098Z" fill="white"/>
<path d="M147.316 12.4226C148.241 13.2287 148.691 14.3668 148.691 15.813C148.691 17.2593 148.193 18.3973 147.316 19.2034C146.392 20.0095 145.088 20.4363 143.428 20.4363H138.425V20.3178H138.615C138.828 20.3178 139.065 20.2466 139.208 20.057C139.35 19.9147 139.469 19.6776 139.469 19.4642V12.1144C139.469 11.901 139.35 11.6876 139.208 11.5928C139.065 11.4505 138.828 11.3794 138.615 11.3794H138.473V11.2371H143.475C145.135 11.1897 146.392 11.5928 147.316 12.4226ZM142.195 11.8536V19.8199H143.191C143.973 19.8673 144.708 19.4405 145.135 18.753C145.633 18.0417 145.846 17.0933 145.846 15.8367C145.846 14.5801 145.633 13.6318 145.135 12.9205C144.708 12.2566 143.973 11.8299 143.191 11.8536H142.195Z" fill="white"/>
<path d="M44.845 24.5622C44.3945 24.3726 43.9677 24.2777 43.4698 24.3014H41.2649V31.5801H42.4978V28.8299H43.4698C43.9677 28.8299 44.3945 28.7588 44.845 28.5691C45.983 28.0001 46.4098 26.6249 45.8408 25.4869C45.7933 25.4395 45.7933 25.3683 45.7696 25.3446C45.5088 24.989 45.2006 24.7519 44.845 24.5622ZM44.4656 27.431C44.1811 27.6444 43.8018 27.7867 43.4698 27.7156H42.4978V25.3446H43.4698C43.8492 25.3446 44.1811 25.4158 44.4656 25.6291C44.7264 25.8425 44.8924 26.1982 44.845 26.4827C44.8924 26.9094 44.7264 27.2177 44.4656 27.431Z" fill="white"/>
<path d="M50.1086 24.2783H48.8757V31.557H50.1086V24.2783Z" fill="white"/>
<path d="M56.9131 24.1357C56.3915 24.1357 55.9173 24.2069 55.4194 24.3965C54.5422 24.7759 53.7835 25.4872 53.4041 26.3881C53.0248 27.3602 53.0248 28.4508 53.4041 29.3992C53.5938 29.8497 53.8546 30.2527 54.1865 30.6083C54.5422 30.964 54.9215 31.2011 55.3957 31.3907C55.8936 31.5804 56.3678 31.6515 56.8894 31.6515C57.3399 31.6515 57.7666 31.6041 58.2408 31.4619C58.6202 31.3196 58.9521 31.1062 59.2129 30.8929V29.4466C59.0232 29.6363 58.8335 29.8259 58.6202 29.9682C58.4068 30.1105 58.1223 30.2527 57.8852 30.3475C57.6007 30.4187 57.245 30.4898 56.9605 30.4898C56.51 30.4898 56.107 30.3713 55.7276 30.1342C55.3483 29.9208 55.0638 29.6126 54.8504 29.2569C54.637 28.8302 54.4711 28.4034 54.4948 27.9055C54.4948 27.4076 54.6133 26.9808 54.8504 26.5541C55.3009 25.8191 56.1307 25.3212 56.9842 25.3449C57.3399 25.3449 57.6244 25.3923 57.9089 25.4872C58.1697 25.5583 58.4305 25.7005 58.6439 25.8665C58.8572 26.0088 59.0706 26.2221 59.2366 26.3881V24.9419C58.9521 24.6811 58.5964 24.4914 58.2645 24.3491C57.7903 24.2069 57.3399 24.1357 56.9131 24.1357Z" fill="white"/>
<path d="M67.914 24.2783H66.4204L63.7412 27.3368V24.2783H62.4609V31.5807H63.7412V28.1903L66.5863 31.5807H68.0563L64.8793 27.6924L67.914 24.2783Z" fill="white"/>
<path d="M71.8735 24.2783H70.6406V31.5807H74.7897V30.4427H71.8735V24.2783Z" fill="white"/>
<path d="M78.1093 24.2783H77.3743V31.5807H78.1093H78.5597H81.8316V30.5138H78.5597V28.214H81.5708V27.1471H78.5597V25.3927H81.8316V24.2783H78.5597H78.1093Z" fill="white"/>
<path d="M89.1814 27.9531C88.968 27.8109 88.6835 27.6923 88.399 27.5975H88.4464C88.802 27.4789 89.0391 27.313 89.2525 27.0285C89.4422 26.7677 89.537 26.4357 89.537 26.1038C89.537 25.7245 89.4659 25.3925 89.2525 25.0369C89.0628 24.7761 88.7546 24.539 88.4464 24.4442C88.067 24.3019 87.664 24.2308 87.2135 24.2545H85.0085V31.5332H87.2846C87.7351 31.5332 88.2093 31.4621 88.6598 31.3198C89.0391 31.1776 89.3236 30.9405 89.5844 30.656C89.7978 30.3003 89.9401 29.8736 89.9401 29.4468C89.9401 29.1623 89.8689 28.8067 89.7267 28.5696C89.5844 28.3325 89.3947 28.1428 89.1814 27.9531ZM87.1187 25.3214C87.4032 25.3214 87.7114 25.3925 87.9248 25.5822C88.1382 25.7719 88.2804 26.0327 88.2804 26.2935C88.2804 26.4832 88.233 26.6728 88.1382 26.8151C88.0196 26.9573 87.8774 27.0759 87.7114 27.1707C87.5217 27.2418 87.2846 27.2893 87.1187 27.2893H86.2414V25.3451L87.1187 25.3214ZM88.5175 30.0158C88.399 30.2055 88.233 30.3715 87.9959 30.4426C87.7825 30.5611 87.498 30.5848 87.2609 30.5848H86.2414V28.1902H87.2372C87.4269 28.1902 87.6166 28.2376 87.8062 28.2613C87.9485 28.3088 88.1619 28.3799 88.2567 28.4747C88.399 28.5933 88.4701 28.6881 88.5412 28.8541C88.6123 28.9963 88.6598 29.2097 88.6598 29.3757C88.6835 29.5891 88.6123 29.8261 88.5175 30.0158Z" fill="white"/>
<path d="M92.05 31.5802H93.4252L94.2313 29.7072H96.9104L97.7165 31.5802H99.0917L95.5116 23.8984L92.05 31.5802ZM96.6022 28.664H94.6106L95.5827 26.3642L96.6022 28.664Z" fill="white"/>
<path d="M102.956 24.2783H101.723V31.5807H105.849V30.4427H102.956V24.2783Z" fill="white"/>
<path d="M109.666 24.2783H108.433V31.5807H112.559V30.4427H109.666V24.2783Z" fill="white"/>
<path d="M122.682 24.1357C122.161 24.1357 121.687 24.2069 121.189 24.3965C120.738 24.5862 120.335 24.847 119.98 25.1789C119.624 25.5346 119.387 25.9139 119.197 26.3881C118.818 27.3602 118.818 28.4508 119.197 29.3992C119.387 29.8497 119.648 30.2527 119.98 30.6083C120.311 30.964 120.715 31.2011 121.189 31.3907C121.687 31.5804 122.161 31.6515 122.682 31.6515C123.133 31.6515 123.56 31.6041 124.034 31.4619C124.413 31.3196 124.698 31.1062 125.006 30.8929V29.4466C124.816 29.6363 124.627 29.8259 124.413 29.9682C124.2 30.1105 123.915 30.2527 123.678 30.3475C123.394 30.4187 123.038 30.4898 122.753 30.4898C122.303 30.4898 121.9 30.3713 121.521 30.1342C121.141 29.9208 120.857 29.6126 120.643 29.2569C120.43 28.8302 120.264 28.4034 120.288 27.9055C120.288 27.4076 120.406 26.9808 120.643 26.5541C121.094 25.8191 121.924 25.3212 122.777 25.3449C123.133 25.3449 123.417 25.3923 123.702 25.4872C123.963 25.5583 124.223 25.7005 124.437 25.8665C124.65 26.0088 124.864 26.2221 125.03 26.3881V24.9419C124.745 24.6811 124.389 24.4914 124.057 24.3491C123.583 24.2069 123.109 24.1357 122.682 24.1357Z" fill="white"/>
<path d="M129.487 24.2783H128.254V31.5807H132.38V30.4427H129.487V24.2783Z" fill="white"/>
<path d="M138.9 29.1621C138.9 29.5889 138.781 29.9445 138.52 30.2528C137.927 30.8218 137.003 30.8218 136.386 30.2528C136.126 29.9682 136.007 29.5889 136.007 29.1621V24.3018H134.774V29.1858C134.774 29.5652 134.845 29.9208 134.964 30.2765C135.082 30.561 135.248 30.8692 135.533 31.0826C135.794 31.296 136.054 31.5093 136.386 31.6042C137.098 31.8176 137.833 31.8176 138.52 31.6042C138.805 31.4856 139.113 31.3197 139.374 31.0826C139.587 30.8692 139.824 30.5847 139.943 30.2765C140.085 29.9208 140.132 29.5652 140.132 29.1858V24.3018H138.9V29.1621Z" fill="white"/>
<path d="M148.241 28.5937C148.099 28.3329 147.885 28.1432 147.672 28.001C147.458 27.8587 147.174 27.7402 146.889 27.6453H146.937C147.292 27.5268 147.53 27.3608 147.743 27.0763C147.933 26.8155 148.027 26.4836 148.027 26.1517C148.027 25.7723 147.956 25.4404 147.743 25.0847C147.53 24.8239 147.245 24.5869 146.937 24.492C146.558 24.3498 146.154 24.2786 145.704 24.3023H143.499V31.5811H145.799C146.249 31.5811 146.723 31.5099 147.174 31.3677C147.553 31.2254 147.838 30.9883 148.099 30.7038C148.312 30.3482 148.454 29.9214 148.454 29.4947C148.454 29.2101 148.383 28.8545 148.241 28.5937ZM145.609 25.3218C145.894 25.3218 146.202 25.393 146.415 25.5826C146.629 25.7723 146.771 26.0331 146.771 26.2939C146.771 26.4836 146.723 26.6733 146.629 26.8155C146.51 26.9578 146.368 27.0763 146.202 27.1712C146.012 27.2423 145.775 27.2897 145.609 27.2897H144.732V25.3455L145.609 25.3218ZM147.008 30.0163C146.889 30.2059 146.723 30.3719 146.486 30.443C146.273 30.5616 145.988 30.5853 145.751 30.5853H144.756V28.1906H145.751C145.941 28.1906 146.131 28.2381 146.32 28.2618C146.463 28.3092 146.676 28.3803 146.771 28.4752C146.889 28.5937 146.984 28.6885 147.055 28.8545C147.127 28.9968 147.174 29.2101 147.174 29.3761C147.174 29.5895 147.15 29.8266 147.008 30.0163Z" fill="white"/>
<path d="M17.9589 45C16.0858 45 14.3314 44.4073 12.8614 43.2929C10.0163 41.2065 7.7165 39.4521 5.60638 37.8398L5.20333 37.5316C3.89932 36.5121 2.52419 35.4689 1.62324 33.9041C0.556331 32.1733 0.0347303 30.0395 0.0347303 27.5263C0.0347303 23.804 0.0347303 20.058 0.0347303 16.3356C0.0347303 12.9452 -0.320907 9.38883 1.2439 6.25922C2.45306 3.84088 4.51576 1.92044 7.00523 0.877238C8.40407 0.308218 9.89774 0 11.3914 0H24.5737C26.7787 0 29.0547 0.687565 30.9752 1.94415C32.9431 3.27186 34.5079 5.35827 35.3377 7.80031C35.5036 8.25079 35.6459 8.72497 35.7407 9.19916C35.7882 9.36512 35.8119 9.55479 35.8356 9.72076C35.8356 9.79189 35.8593 9.88672 35.883 9.98156C35.9067 10.0527 35.9304 10.1712 35.9541 10.3135C36.0015 10.7165 36.0015 11.0959 36.0015 11.4278C36.0015 11.9968 36.0015 12.5659 36.0015 13.1112C36.0015 14.4626 36.0015 15.814 36.0015 17.1654C36.0015 18.7777 36.0015 20.4136 36.0015 22.0258C36.0015 23.4009 36.0015 24.7761 36.0015 26.1512C36.0015 26.9099 36.049 27.6686 36.0015 28.451C35.9304 29.6602 35.6696 30.8219 35.2428 31.9362C34.7924 33.1217 34.1285 34.1886 33.3698 35.1844C32.5637 36.2039 31.5205 36.9389 30.501 37.7213L26.4467 40.7086L22.9615 43.2929C21.5864 44.4073 19.8556 45 17.9589 45Z" fill="white"/>
<path d="M34.7212 25.7484C34.7212 25.0371 34.7212 24.3021 34.7212 23.5909C34.7212 22.2157 34.7212 20.8643 34.7212 19.4892C34.7212 18.1378 34.7212 16.7863 34.7212 15.4349C34.7212 14.4391 34.7212 13.4196 34.7212 12.4239C34.7212 12.0919 34.7212 11.76 34.7212 11.4044C34.7212 11.0961 34.7212 10.7642 34.6738 10.4323C34.6738 10.3612 34.6264 10.3137 34.6264 10.2426C34.579 9.9581 34.5553 9.67359 34.5079 9.46021C34.4367 9.03344 34.3182 8.63039 34.1522 8.25104C33.4409 6.18834 32.0895 4.24419 30.2639 3.01131C28.5569 1.89698 26.5416 1.25684 24.5263 1.25684H11.344C6.08057 1.25684 1.7655 5.21627 1.29131 10.4323C1.29131 10.5034 1.29131 10.5745 1.29131 10.6457V10.8353C1.2439 10.9776 1.2439 11.1436 1.2439 11.3569C1.2439 11.5229 1.2439 11.76 1.2439 11.9497C1.2439 13.0403 1.2439 14.0835 1.2439 15.1741C1.2439 16.7389 1.2439 18.28 1.2439 19.8448C1.2439 21.3622 1.2439 22.927 1.2439 24.4444C1.2439 25.4402 1.2439 26.5071 1.2439 27.5266C1.2439 29.5419 1.62324 31.5572 2.66645 33.2879C3.54369 34.7816 4.98994 35.8248 6.34137 36.868C8.73599 38.7173 11.1543 40.5192 13.5964 42.3211C14.853 43.2695 16.3466 43.7674 17.9114 43.7674C19.4762 43.7674 20.9699 43.2932 22.1317 42.3211L25.6406 39.7131C25.6406 39.7131 29.6238 36.7258 29.6475 36.7258C30.1691 36.3464 30.667 35.9671 31.1886 35.564C33.0379 34.1177 34.1759 31.7468 34.5553 29.4707V29.447C34.7924 28.1905 34.7212 26.9813 34.7212 25.7484Z" fill="#801424"/>
<path d="M3.78075 19.7972C8.52259 19.7972 13.3356 16.8335 17.9825 13.9647C22.6295 11.0959 27.4425 8.13226 32.1369 8.13226C32.3503 8.13226 32.54 8.13226 32.7534 8.15597H32.7771C32.3977 7.18389 31.8524 6.30665 31.2123 5.54796H31.1886L31.1411 5.50054V5.52425C30.6907 5.47683 30.2165 5.45312 29.7423 5.45312C25.5932 5.45312 21.3493 7.4684 17.2713 9.43626C13.1696 11.4041 8.94935 13.4194 4.77654 13.4194C4.01785 13.4194 3.25915 13.3483 2.52417 13.206V19.7023H2.54788C2.95093 19.7735 3.3777 19.7972 3.78075 19.7972Z" fill="white"/>
<path d="M11.1306 38.8832L11.178 38.9069L11.1543 38.8832C13.9282 37.5081 16.7496 35.5639 19.4525 33.6909C24.0283 30.5376 28.7702 27.2657 33.4172 26.6019H33.4409V23.5908C33.2749 23.5908 33.1327 23.5908 32.9667 23.5908C28.296 23.5908 23.5305 26.2225 18.9309 28.7831C14.3313 31.3437 9.56575 33.9754 4.87134 33.9991C5.44036 34.5445 6.0805 35.0423 6.74436 35.5639L7.14742 35.8722C8.38029 36.7968 9.6843 37.7926 11.1306 38.8832Z" fill="white"/>
<path d="M2.92723 30.5609C3.25915 30.5847 3.61479 30.6084 3.94672 30.6084C9.16274 30.6084 14.4499 26.9572 19.5948 23.4245C24.1469 20.2949 28.8651 17.0467 33.4883 16.3592V13.3955C33.3224 13.3955 33.1564 13.3955 32.9904 13.3955C28.3197 13.3955 23.5542 16.0509 18.9546 18.6115C14.355 21.1721 9.61321 23.8275 4.9188 23.8275C4.11268 23.8275 3.33028 23.7564 2.54788 23.5905H2.52417V27.5499C2.52417 28.6168 2.64272 29.6363 2.92723 30.5609Z" fill="white"/>
<path d="M28.9734 23.1022C29.9572 17.0402 25.8406 11.3285 19.7786 10.3447C13.7167 9.36085 8.00492 13.4775 7.02111 19.5395C6.03729 25.6014 10.1539 31.3132 16.2159 32.297C22.2779 33.2808 27.9896 29.1641 28.9734 23.1022Z" fill="white"/>
<path d="M17.9824 31.4141C23.5606 31.4141 28.0825 26.8921 28.0825 21.314C28.0825 15.7358 23.5606 11.2139 17.9824 11.2139C12.4043 11.2139 7.88232 15.7358 7.88232 21.314C7.88232 26.8921 12.4043 31.4141 17.9824 31.4141Z" fill="#104D85"/>
<path d="M12.5294 15.5534C12.6243 16.1461 12.7665 16.7151 12.8851 17.3078C12.2212 16.8574 12.0078 16.7625 11.6048 16.5017C11.1306 17.0233 10.7275 17.5924 10.3245 18.1614C10.5141 17.4738 10.7275 16.7625 10.9883 16.1224C10.7512 15.9327 10.5378 15.7905 10.3482 15.5771C10.7038 15.3637 11.1543 15.174 11.5573 15.0081C11.8656 14.4627 12.1975 13.9649 12.6005 13.5381C12.5057 13.8937 12.482 14.3442 12.482 14.6998C13.3355 14.4627 13.4067 14.4153 14.0942 14.2494C13.5252 14.605 12.9799 15.0792 12.5294 15.5534Z" fill="white"/>
<path d="M10.4194 23.7564C10.7751 24.3965 11.2256 24.9893 11.6286 25.6294C10.8699 25.1789 10.7039 25.0841 10.2061 24.7522C10.1349 25.2264 10.1349 25.7243 10.2061 26.1984C9.89784 25.5583 9.63704 24.9181 9.44736 24.2069C9.11543 23.9698 8.80722 23.6616 8.52271 23.3533C8.73609 23.14 8.92576 22.9977 9.16285 22.8317C9.06802 22.0731 9.04431 21.3144 9.06802 20.5557C9.25769 21.2195 9.47107 21.8834 9.75558 22.5235C10.1586 22.3339 10.5617 22.1916 10.9885 22.0493C10.8225 22.5947 10.5617 23.1874 10.4194 23.7564Z" fill="white"/>
<path d="M15.7302 29.3762C16.0858 29.7319 16.5363 30.0401 16.9394 30.4194L15.7302 29.8978C15.7776 30.1349 15.8488 30.372 16.0384 30.538C15.588 30.2535 15.2323 29.9453 14.8767 29.4948C14.1891 29.1866 13.952 29.1391 13.4304 28.9021C13.9046 28.7835 13.952 28.7835 14.284 28.6887C13.9757 28.1671 13.7386 27.598 13.5253 27.0527C14.2128 27.8588 14.3314 27.9774 14.9241 28.5227C15.5168 28.4279 15.5642 28.4279 16.0384 28.333C15.8488 28.7124 15.7776 29.0443 15.7302 29.3762Z" fill="white"/>
<path d="M19.4291 14.6045C19.8796 15.4581 19.9744 15.6477 20.3538 16.4776C19.3106 15.8137 19.2394 15.79 18.457 15.3158C17.6035 15.956 17.4849 16.1219 16.8211 16.6435C17.1056 15.6003 17.1293 15.5292 17.3427 14.7231C16.418 14.2489 16.418 14.2015 15.7305 13.917C16.7737 13.7984 16.8922 13.7984 17.6272 13.7036C17.8406 13.0634 17.8406 13.0634 18.0303 12.4707C18.3859 12.9923 18.4807 13.1109 18.8364 13.6799C19.927 13.6799 20.0455 13.6799 20.7331 13.751C20.3063 14.0355 19.8322 14.2963 19.4291 14.6045Z" fill="white"/>
<path d="M25.4985 15.576C25.8305 16.1687 26.1387 16.8089 26.4232 17.4727C26.0675 16.9511 25.6171 16.4295 25.214 16.0265C24.9769 16.3347 24.6924 16.5955 24.4079 16.88C24.4553 16.311 24.4079 15.7657 24.3131 15.1966C23.7915 14.7462 23.2699 14.3431 22.772 13.9875C23.2462 14.0586 23.6966 14.2009 24.1234 14.3194C24.0048 13.9164 23.8152 13.5133 23.5781 13.2051C24.0286 13.6081 24.4553 14.0823 24.811 14.6039C25.1192 14.7225 25.4037 14.8884 25.7356 15.0781C25.6645 15.1966 25.6171 15.4337 25.4985 15.576Z" fill="white"/>
<path d="M16.1571 22.4056L17.0818 24.492C16.1571 23.8992 16.1097 23.8518 15.3273 23.3776C14.9716 23.8992 14.6397 24.4208 14.2841 24.9187C14.2129 24.16 14.1892 23.4488 14.2129 22.6901C13.4068 22.1685 13.0512 22.0025 12.4822 21.5994C13.4543 21.3623 13.5728 21.3623 14.2604 21.1964C14.3789 19.9872 14.45 19.845 14.5923 18.8018C15.0428 19.9635 15.0665 20.0109 15.517 21.0067C16.6787 20.817 16.7498 20.817 17.6034 20.7696C16.8921 21.6469 16.7261 21.7654 16.1571 22.4056Z" fill="white"/>
<path d="M23.6493 22.0978C23.7441 22.7853 23.7678 23.5203 23.7441 24.2553C23.4359 23.7811 23.104 23.3306 22.7009 22.9039L21.1598 24.2316C21.4917 23.1884 21.6103 22.9513 21.8474 22.0266C21.3021 21.505 20.7568 21.102 20.1877 20.6278C21.3969 20.5804 21.468 20.5804 22.2267 20.6278C22.5112 19.5372 22.5587 19.3001 22.7483 18.4229C22.9854 19.1815 23.2225 19.9402 23.3885 20.7226C24.3131 20.8175 24.4317 20.8175 25.0007 20.9123C24.2657 21.5525 24.2657 21.5999 23.6493 22.0978Z" fill="white"/>
<path d="M27.4662 23.0686C27.3714 23.7324 27.1817 24.3963 26.9446 24.989C27.0157 24.5385 27.0394 24.0644 27.0157 23.6376C26.7075 23.9695 26.423 24.3015 26.0911 24.6097C26.3993 24.0169 26.6601 23.4005 26.8972 22.7366C26.8023 22.215 26.6127 21.6934 26.3756 21.2667C26.6838 21.3378 26.9446 21.4801 27.2291 21.5986C27.3477 21.0059 27.4425 20.3657 27.4662 19.7256C27.561 20.4132 27.5847 21.1244 27.5847 21.812C27.8218 22.0491 27.8218 22.0491 27.893 22.215C27.7981 22.5233 27.6322 22.7841 27.4662 23.0686Z" fill="white"/>
<path d="M19.7372 28.8304C19.7846 29.2334 19.7846 29.6365 19.7372 29.9921C19.5475 29.7551 19.4053 29.5417 19.1919 29.352C18.9548 29.5891 18.7414 29.8262 18.5991 30.1107C18.5991 29.7076 18.5991 29.3046 18.6466 28.9489C18.0775 28.5459 18.0538 28.4985 17.5322 28.1428C18.2198 28.0717 18.3383 28.048 18.8125 28.0243C19.0022 27.1708 19.0259 27.0996 19.1682 26.2461C19.4053 27.1233 19.4764 27.2893 19.6186 27.9769C20.3773 27.9057 20.4247 27.9057 20.8989 27.9057C20.3062 28.3325 20.1165 28.4985 19.7372 28.8304Z" fill="white"/>
<path d="M23.1512 28.8537C22.8192 29.3041 22.3925 29.7072 21.942 30.0154C22.1554 29.802 22.2739 29.5649 22.3925 29.3279C21.7286 29.7309 21.7286 29.7309 21.2307 29.9917C21.6812 29.6361 22.108 29.1856 22.511 28.7825C22.511 28.4743 22.4636 28.1898 22.3213 27.8579C22.8904 27.8579 22.9141 27.8579 23.246 27.8579C23.6965 27.3126 24.0995 26.7673 24.4552 26.1982C24.2655 26.7673 24.0047 27.36 23.6965 27.8816C24.0521 27.929 24.0995 27.929 24.3366 27.9527C23.9573 28.2846 23.5305 28.5692 23.1512 28.8537Z" fill="white"/>
</svg>
