<svg width="20" height="20" viewBox="0 0 20 20" fill="none" xmlns="http://www.w3.org/2000/svg">
<g clip-path="url(#clip0_12050_251)">
<path d="M9.99984 18.3332C14.6022 18.3332 18.3332 14.6022 18.3332 9.99984C18.3332 5.39746 14.6022 1.6665 9.99984 1.6665C5.39746 1.6665 1.6665 5.39746 1.6665 9.99984C1.6665 14.6022 5.39746 18.3332 9.99984 18.3332Z" stroke="white" stroke-width="1.66667" stroke-linecap="round" stroke-linejoin="round"/>
<path d="M7.9165 7.47095C7.9165 7.07321 7.9165 6.87434 7.99962 6.76332C8.07206 6.66657 8.18293 6.60603 8.30349 6.59742C8.44182 6.58754 8.60911 6.69508 8.94368 6.91016L12.8775 9.43905C13.1678 9.62569 13.313 9.719 13.3631 9.83766C13.4069 9.94134 13.4069 10.0583 13.3631 10.162C13.313 10.2807 13.1678 10.374 12.8775 10.5606L8.94368 13.0895C8.60911 13.3046 8.44182 13.4121 8.30349 13.4023C8.18293 13.3936 8.07206 13.3331 7.99962 13.2364C7.9165 13.1253 7.9165 12.9265 7.9165 12.5287V7.47095Z" stroke="white" stroke-width="1.66667" stroke-linecap="round" stroke-linejoin="round"/>
</g>
<defs>
<clipPath id="clip0_12050_251">
<rect width="20" height="20" fill="white"/>
</clipPath>
</defs>
</svg>
