<svg width="56" height="56" viewBox="0 0 56 56" fill="none" xmlns="http://www.w3.org/2000/svg">
<path d="M28 55C13.0883 55 1 42.9117 1 28C1 13.0883 13.0883 1 28 1C42.9117 1 55 13.0883 55 28C55 42.9117 42.9117 55 28 55Z" fill="#0F6ABA"/>
<path d="M28 55C13.0883 55 1 42.9117 1 28C1 13.0883 13.0883 1 28 1C42.9117 1 55 13.0883 55 28C55 42.9117 42.9117 55 28 55Z" stroke="url(#paint0_linear_12090_256)" stroke-width="2"/>
<path d="M19.0605 38.458C19.0605 37.45 19.1445 36.526 19.3125 35.686C19.4805 34.822 19.7685 34.006 20.1765 33.238C20.6085 32.47 21.1965 31.75 21.9405 31.078C22.7085 30.382 23.6805 29.722 24.8565 29.098C25.6965 28.618 26.4885 28.198 27.2325 27.838C27.9765 27.454 28.6365 27.082 29.2125 26.722C29.7885 26.338 30.2325 25.93 30.5445 25.498C30.8805 25.066 31.0485 24.574 31.0485 24.022C31.0485 23.494 30.9045 23.002 30.6165 22.546C30.3285 22.09 29.8965 21.73 29.3205 21.466C28.7445 21.178 28.0485 21.034 27.2325 21.034C26.5845 21.034 25.9845 21.118 25.4325 21.286C24.9045 21.454 24.4125 21.682 23.9565 21.97C23.5245 22.234 23.1285 22.534 22.7685 22.87C22.4085 23.182 22.0965 23.494 21.8325 23.806L19.3485 20.962C19.5885 20.674 19.9605 20.35 20.4645 19.99C20.9925 19.606 21.6165 19.234 22.3365 18.874C23.0805 18.49 23.9205 18.178 24.8565 17.938C25.7925 17.674 26.8125 17.542 27.9165 17.542C29.4765 17.542 30.8085 17.806 31.9125 18.334C33.0165 18.838 33.8565 19.546 34.4325 20.458C35.0325 21.346 35.3325 22.354 35.3325 23.482C35.3325 24.37 35.1525 25.15 34.7925 25.822C34.4565 26.494 34.0125 27.094 33.4605 27.622C32.9085 28.126 32.3205 28.57 31.6965 28.954C31.0965 29.314 30.5325 29.638 30.0045 29.926C29.0685 30.382 28.2525 30.802 27.5565 31.186C26.8845 31.57 26.3085 31.954 25.8285 32.338C25.3485 32.698 24.9525 33.082 24.6405 33.49C24.3285 33.874 24.0645 34.342 23.8485 34.894H35.7285V38.458H19.0605Z" fill="white"/>
<defs>
<linearGradient id="paint0_linear_12090_256" x1="28" y1="0" x2="28" y2="56" gradientUnits="userSpaceOnUse">
<stop stop-color="white" stop-opacity="0.12"/>
<stop offset="1" stop-color="white" stop-opacity="0"/>
</linearGradient>
</defs>
</svg>
