<svg width="56" height="56" viewBox="0 0 56 56" fill="none" xmlns="http://www.w3.org/2000/svg">
<path d="M28 55C13.0883 55 1 42.9117 1 28C1 13.0883 13.0883 1 28 1C42.9117 1 55 13.0883 55 28C55 42.9117 42.9117 55 28 55Z" fill="#0F6ABA"/>
<path d="M28 55C13.0883 55 1 42.9117 1 28C1 13.0883 13.0883 1 28 1C42.9117 1 55 13.0883 55 28C55 42.9117 42.9117 55 28 55Z" stroke="url(#paint0_linear_12090_254)" stroke-width="2"/>
<path d="M35.6185 34.7142V38.2782H21.8665V34.7142H26.9785V22.1502C26.7625 22.4382 26.4265 22.7382 25.9705 23.0502C25.5145 23.3622 24.9985 23.6622 24.4225 23.9502C23.8705 24.2142 23.3065 24.4302 22.7305 24.5982C22.1545 24.7662 21.6265 24.8502 21.1465 24.8502V21.1422C21.6265 21.1422 22.1785 20.9982 22.8025 20.7102C23.4265 20.4222 24.0385 20.0862 24.6385 19.7022C25.2625 19.2942 25.7905 18.9102 26.2225 18.5502C26.6545 18.1662 26.9065 17.8902 26.9785 17.7222H31.0465V34.7142H35.6185Z" fill="white"/>
<defs>
<linearGradient id="paint0_linear_12090_254" x1="28" y1="0" x2="28" y2="56" gradientUnits="userSpaceOnUse">
<stop stop-color="white" stop-opacity="0.12"/>
<stop offset="1" stop-color="white" stop-opacity="0"/>
</linearGradient>
</defs>
</svg>
